<svg width="66" height="65" viewBox="0 0 66 65" fill="none" xmlns="http://www.w3.org/2000/svg">
<path d="M33 0C14.7746 0 0 14.5508 0 32.5C0 50.4492 14.7746 65 33 65C51.2254 65 66 50.4492 66 32.5C66 14.5508 51.2254 0 33 0ZM36.927 48.9528L29.9772 36.5313H28.0262V48.9528H19.8871V16.0472H33.5478C36.1812 16.0472 38.4261 16.5 40.2824 17.4057C42.1384 18.3131 43.5266 19.5555 44.447 21.1328C45.3746 22.7384 45.8512 24.5584 45.8278 26.4056C45.8556 28.5072 45.1961 30.5619 43.9468 32.266C42.6928 33.9846 40.8448 35.2031 38.4028 35.9216L46.1129 48.9528H36.927Z" fill="white"/>
<path d="M36.4266 22.7808C37.1724 23.501 37.5451 24.4856 37.5446 25.7344C37.5446 27.0461 37.172 28.0619 36.4266 28.7816C35.6812 29.5014 34.5628 29.8606 33.0712 29.8593H28.0261V21.7031H33.0712C34.5628 21.7031 35.6812 22.0624 36.4266 22.7808Z" fill="white"/>
</svg>
