<svg width="231" height="65" viewBox="0 0 231 65" fill="none" xmlns="http://www.w3.org/2000/svg">
<path d="M33 0C14.7746 0 0 14.5508 0 32.5C0 50.4492 14.7746 65 33 65C51.2254 65 66 50.4492 66 32.5C66 14.5508 51.2254 0 33 0ZM36.927 48.9528L29.9772 36.5313H28.0262V48.9528H19.8871V16.0472H33.5478C36.1812 16.0472 38.4261 16.5 40.2824 17.4057C42.1384 18.3131 43.5266 19.5555 44.447 21.1328C45.3746 22.7384 45.8512 24.5584 45.8278 26.4056C45.8556 28.5072 45.1961 30.5619 43.9468 32.266C42.6928 33.9846 40.8448 35.2031 38.4028 35.9216L46.1129 48.9528H36.927Z" fill="white"/>
<path d="M36.4266 22.7808C37.1724 23.501 37.5451 24.4856 37.5446 25.7344C37.5446 27.0461 37.172 28.0619 36.4266 28.7816C35.6812 29.5014 34.5628 29.8606 33.0712 29.8593H28.0261V21.7031H33.0712C34.5628 21.7031 35.6812 22.0624 36.4266 22.7808Z" fill="white"/>
<g clip-path="url(#clip0_204_13)">
<path d="M81.2829 48.032C81.1768 48.916 80.8055 49.6409 80.1691 50.2066C79.5326 50.7724 78.8431 51.126 78.1006 51.2674C77.358 51.4442 76.6685 51.3735 76.032 51.0552C75.4309 50.737 75.1127 50.1005 75.0773 49.1458C74.9006 45.0795 74.8122 40.8718 74.8122 36.5226C74.8122 32.1381 74.8122 27.7889 74.8122 23.4751C74.2464 23.263 73.8221 22.9447 73.5392 22.5204C73.2564 22.0961 73.0796 21.6365 73.0088 21.1414C72.9735 20.611 73.0442 20.0807 73.221 19.5503C73.3978 19.0199 73.663 18.5602 74.0166 18.1713C74.4055 17.747 74.9359 17.358 75.6077 17.0044C76.2796 16.6508 77.0044 16.3326 77.7823 16.0497C78.5956 15.7315 79.3912 15.4663 80.1691 15.2541C80.947 15.042 81.6011 14.8829 82.1315 14.7768C84.3591 14.3171 86.6045 14.3348 88.8674 14.8298C91.1304 15.2895 93.1105 16.1381 94.8078 17.3757C96.5404 18.6133 97.831 20.2221 98.6796 22.2022C99.5282 24.1823 99.6166 26.4453 98.9448 28.9912C98.7326 29.6983 98.4674 30.4055 98.1492 31.1127C97.831 31.8199 97.4597 32.474 97.0354 33.0751C96.4343 33.9945 95.7271 34.8077 94.9138 35.5149C94.1006 36.2221 93.2166 36.8762 92.2619 37.4773C92.9337 38.1845 93.5702 38.9271 94.1713 39.705C94.7724 40.4829 95.4442 41.19 96.1868 41.8265C96.4696 42.074 96.8763 42.463 97.4067 42.9934C97.9724 43.5237 98.5028 44.0895 98.9978 44.6906C99.5282 45.2917 99.9879 45.8928 100.377 46.4939C100.766 47.0597 100.943 47.537 100.907 47.926C100.872 48.5978 100.677 49.1989 100.324 49.7293C100.006 50.295 99.5989 50.7193 99.1039 51.0022C98.6442 51.3204 98.1315 51.4795 97.5658 51.4795C97 51.4795 96.4343 51.2851 95.8685 50.8961C95.2321 50.4011 94.631 49.8177 94.0652 49.1458C93.4995 48.474 92.9514 47.8552 92.421 47.2895C91.2542 46.0166 90.105 44.7436 88.9735 43.4707C87.8774 42.1624 86.7459 40.8895 85.579 39.6519C84.8719 39.7934 84.147 39.8994 83.4045 39.9702C82.6972 40.0055 81.9901 40.0586 81.2829 40.1293V47.6608V48.032ZM90.7768 22.3613C89.3625 21.5127 87.8067 21.0354 86.1094 20.9293C84.4475 20.8232 82.8387 21.053 81.2829 21.6188V33.6055C82.874 33.4994 84.4299 33.305 85.9503 33.0221C87.5061 32.7039 88.9382 32.032 90.2464 31.0066C90.9536 30.4409 91.5194 29.7867 91.9437 29.0442C92.4033 28.2663 92.6685 27.4884 92.7393 26.7105C92.8453 25.8972 92.7393 25.1193 92.421 24.3768C92.1382 23.5989 91.5901 22.9271 90.7768 22.3613ZM104.464 36.6818C104.712 35.6563 105.048 34.6486 105.472 33.6586C105.932 32.6685 106.48 31.7315 107.116 30.8475C107.753 29.9282 108.46 29.0972 109.238 28.3547C110.051 27.6121 110.917 27.011 111.837 26.5514C113.463 25.7028 115.09 25.2784 116.716 25.2784C118.378 25.2431 119.916 25.5613 121.331 26.2331C122.745 26.905 123.947 27.9127 124.937 29.2563C125.927 30.5646 126.582 32.1381 126.9 33.9768C127.077 35.179 127.165 36.3282 127.165 37.4243C127.2 38.4851 127.094 39.5989 126.847 40.7657C126.493 42.4276 125.768 44.0895 124.672 45.7514C123.611 47.3779 122.321 48.7392 120.8 49.8353C119.315 50.9668 117.671 51.7094 115.868 52.063C114.1 52.4166 112.314 52.1337 110.511 51.2144C109.698 50.8254 108.955 50.3657 108.283 49.8353C107.647 49.3403 107.063 48.7392 106.533 48.032C105.932 47.2541 105.454 46.4409 105.101 45.5923C104.783 44.7436 104.517 43.8597 104.305 42.9403C104.058 41.9503 103.969 40.9602 104.04 39.9702C104.111 38.9447 104.235 37.9547 104.411 37L104.464 36.6818ZM110.829 37.7956C110.723 38.3613 110.635 38.9271 110.564 39.4928C110.493 40.0232 110.493 40.5713 110.564 41.137C110.67 41.9503 110.882 42.6928 111.2 43.3646C111.554 44.0365 111.996 44.5668 112.526 44.9558C113.092 45.3447 113.728 45.5569 114.436 45.5923C115.143 45.5923 115.903 45.3624 116.716 44.9028C117.742 44.3016 118.626 43.3823 119.368 42.1447C120.111 40.8718 120.57 39.5635 120.747 38.2199C120.924 36.8409 120.783 35.5503 120.323 34.3481C119.863 33.1105 118.962 32.2265 117.618 31.6961C116.734 31.6961 115.921 31.8729 115.178 32.2265C114.436 32.5447 113.782 32.9867 113.216 33.5525C112.685 34.0829 112.208 34.7193 111.784 35.4619C111.395 36.2044 111.077 36.9823 110.829 37.7956ZM155.297 45.1149C155.898 46.1403 156.093 47.0597 155.881 47.8729C155.704 48.6862 155.315 49.2873 154.714 49.6762C154.113 50.1005 153.37 50.2597 152.486 50.1536C151.638 50.0829 150.807 49.6409 149.993 48.8276C149.145 49.4287 148.261 49.8884 147.341 50.2066C146.422 50.5602 145.45 50.8608 144.424 51.1083C142.833 51.4619 141.295 51.4265 139.81 51.0022C138.36 50.6132 137.07 49.9591 135.938 49.0398C134.807 48.1204 133.887 46.9889 133.18 45.6453C132.473 44.2663 132.084 42.7812 132.013 41.19C131.907 39.4221 132.031 37.7249 132.385 36.0983C132.773 34.4718 133.375 32.9867 134.188 31.6431C135.001 30.2994 136.062 29.1503 137.37 28.1956C138.714 27.2409 140.287 26.5691 142.091 26.1801C143.151 25.9679 144.212 25.8619 145.273 25.8619C146.369 25.8619 147.448 25.9503 148.508 26.1271C148.473 25.3492 148.438 24.4652 148.402 23.4751C148.402 22.4497 148.402 21.4597 148.402 20.505C148.402 19.5503 148.438 18.7017 148.508 17.9591C148.579 17.1812 148.667 16.6331 148.773 16.3149C149.021 15.6784 149.392 15.2011 149.887 14.8829C150.418 14.5293 150.966 14.3525 151.531 14.3525C152.097 14.3171 152.645 14.4586 153.176 14.7768C153.741 15.0597 154.183 15.5017 154.502 16.1028C154.572 16.2796 154.661 16.4563 154.767 16.6331C154.873 16.7746 154.926 16.9337 154.926 17.1105C154.961 21.7425 154.961 26.3215 154.926 30.8475C154.926 35.3735 154.926 39.9525 154.926 44.5845C155.067 44.7967 155.191 44.9735 155.297 45.1149ZM147.925 42.1978C147.996 42.0917 148.119 41.9856 148.296 41.8795C148.508 41.7735 148.614 41.632 148.614 41.4552C148.614 39.9702 148.614 38.5204 148.614 37.1061C148.614 35.6563 148.597 34.1889 148.561 32.7039C147.713 32.5271 146.829 32.421 145.909 32.3856C144.99 32.3503 144.088 32.4387 143.204 32.6508C142.356 32.863 141.56 33.2166 140.818 33.7116C140.11 34.2066 139.545 34.9138 139.12 35.8331C138.908 36.505 138.714 37.1768 138.537 37.8486C138.36 38.5204 138.254 39.1746 138.219 39.811C138.219 40.4475 138.307 41.084 138.484 41.7204C138.661 42.3215 138.961 42.905 139.386 43.4707C139.527 43.6121 139.686 43.7536 139.863 43.895C140.075 44.0365 140.464 44.284 141.03 44.6376C142.338 44.7436 143.576 44.6199 144.743 44.2663C145.945 43.9127 147.006 43.2232 147.925 42.1978ZM183.866 45.221C184.185 45.6807 184.361 46.2287 184.397 46.8652C184.467 47.4663 184.397 48.0497 184.185 48.6155C184.008 49.1458 183.689 49.5878 183.23 49.9414C182.806 50.295 182.24 50.4541 181.533 50.4188C180.613 50.3481 179.871 50.0298 179.305 49.4641C178.739 48.8983 178.209 48.2619 177.714 47.5547C176.335 48.6862 174.903 49.4641 173.418 49.8884C171.968 50.3481 170.536 50.4541 169.122 50.2066C167.707 49.9591 166.381 49.3757 165.144 48.4563C163.906 47.5016 162.863 46.2287 162.014 44.6376C161.236 43.1525 160.795 41.5083 160.688 39.705C160.618 37.9016 160.6 36.1867 160.635 34.5602C160.635 33.9945 160.653 33.4464 160.688 32.916C160.724 32.3503 160.759 31.7668 160.795 31.1657C160.83 30.7061 160.848 30.2641 160.848 29.8398C160.848 29.3801 160.865 28.9558 160.901 28.5668C160.971 28.1779 161.077 27.7889 161.219 27.4C161.396 27.011 161.643 26.6398 161.961 26.2862C162.386 25.8265 162.898 25.5613 163.499 25.4906C164.101 25.3845 164.666 25.4376 165.197 25.6497C165.762 25.8619 166.24 26.1978 166.629 26.6574C167.053 27.0818 167.283 27.6121 167.318 28.2486C167.389 30.0519 167.336 31.8729 167.159 33.7116C167.018 35.5503 167.035 37.3536 167.212 39.1215C167.283 39.9702 167.495 40.8365 167.849 41.7204C168.238 42.6044 168.839 43.2409 169.652 43.6298C170.465 43.9834 171.278 43.9657 172.092 43.5768C172.94 43.1525 173.63 42.6574 174.16 42.0917C174.408 41.8088 174.638 41.5083 174.85 41.19C175.097 40.8365 175.362 40.5359 175.645 40.2884C175.504 39.0508 175.415 37.8132 175.38 36.5757C175.345 35.3381 175.345 34.1005 175.38 32.863C175.38 32.1911 175.398 31.4663 175.433 30.6884C175.504 29.8751 175.645 29.1149 175.857 28.4077C176.105 27.6652 176.459 27.0287 176.918 26.4983C177.378 25.9326 178.032 25.579 178.881 25.4376C179.27 25.3668 179.641 25.4022 179.994 25.5436C180.383 25.6851 180.719 25.8795 181.002 26.1271C181.497 26.5514 181.833 27.0287 182.01 27.5591C182.187 28.0895 182.275 28.6552 182.275 29.2563C182.275 29.8574 182.222 30.4762 182.116 31.1127C182.045 31.7138 181.992 32.2795 181.957 32.8099C181.886 33.8 181.833 34.8431 181.798 35.9392C181.762 37.0353 181.798 38.1315 181.904 39.2276C182.01 40.3237 182.204 41.3845 182.487 42.4099C182.806 43.4353 183.265 44.3724 183.866 45.221ZM196.199 47.979C196.093 48.7569 195.81 49.4287 195.35 49.9945C194.891 50.5602 194.36 50.9492 193.759 51.1613C193.158 51.3735 192.539 51.3735 191.903 51.1613C191.266 50.9492 190.736 50.4718 190.312 49.7293C190.135 49.4464 189.994 49.1458 189.887 48.8276C189.781 48.5094 189.728 48.1911 189.728 47.8729V33.9237C189.057 33.9237 188.438 33.747 187.872 33.3934C187.342 33.0044 186.935 32.5447 186.652 32.0144C186.405 31.4486 186.316 30.8652 186.387 30.2641C186.458 29.6276 186.741 29.0442 187.236 28.5138C187.589 28.1249 187.96 27.8773 188.349 27.7713C188.774 27.6298 189.216 27.5414 189.675 27.5061C189.64 26.4099 189.605 25.3315 189.569 24.2707C189.569 23.2099 189.658 22.1492 189.834 21.0884C190.047 19.4265 190.542 18.0122 191.32 16.8453C192.097 15.6784 193.052 14.7768 194.184 14.1403C195.35 13.5039 196.641 13.1326 198.055 13.0265C199.47 12.9204 200.937 13.1326 202.458 13.663C203.094 13.8751 203.695 14.1403 204.261 14.4586C204.862 14.7768 205.392 15.1834 205.852 15.6784C206.17 16.032 206.4 16.4563 206.542 16.9514C206.683 17.411 206.701 17.8884 206.595 18.3834C206.524 18.8431 206.347 19.2851 206.064 19.7094C205.817 20.0983 205.445 20.3989 204.95 20.611C204.279 20.8939 203.607 20.9646 202.935 20.8232C202.299 20.6818 201.662 20.4519 201.026 20.1337C200.637 19.9923 200.265 19.8508 199.912 19.7094C199.558 19.568 199.187 19.4619 198.798 19.3912C198.409 19.3204 198.055 19.3735 197.737 19.5503C197.419 19.7271 197.136 19.9746 196.889 20.2928C196.676 20.5757 196.5 20.9116 196.358 21.3005C196.252 21.6541 196.199 22.0077 196.199 22.3613C196.164 23.1746 196.146 24.0055 196.146 24.8541C196.181 25.6674 196.199 26.4807 196.199 27.2939C196.729 27.2586 197.295 27.2232 197.896 27.1878C198.497 27.1525 199.081 27.1348 199.647 27.1348C200.248 27.1348 200.796 27.1525 201.291 27.1878C201.786 27.2232 202.175 27.2939 202.458 27.4C203.023 27.6121 203.483 27.9481 203.837 28.4077C204.19 28.832 204.42 29.3094 204.526 29.8398C204.632 30.3348 204.579 30.8475 204.367 31.3779C204.19 31.9083 203.854 32.3679 203.359 32.7569C202.9 33.1105 202.369 33.358 201.768 33.4994C201.167 33.6409 200.531 33.747 199.859 33.8177C199.187 33.853 198.533 33.8707 197.896 33.8707C197.26 33.8353 196.694 33.8177 196.199 33.8177V47.979ZM225.156 25.9679C225.58 25.2608 226.111 24.7834 226.747 24.5359C227.384 24.253 228.003 24.1823 228.604 24.3237C229.24 24.4652 229.788 24.7834 230.248 25.2784C230.743 25.7735 231.043 26.4276 231.15 27.2409C231.22 27.842 231.096 28.6906 230.778 29.7867C230.495 30.8829 230.124 32.0144 229.664 33.1812C229.24 34.3481 228.798 35.4619 228.338 36.5226C227.879 37.5834 227.508 38.4144 227.225 39.0155C226.022 41.6674 224.714 44.2663 223.3 46.8121C221.885 49.358 220.436 51.8862 218.951 54.3967C218.738 54.7856 218.491 55.263 218.208 55.8287C217.925 56.3945 217.625 56.9779 217.306 57.579C217.024 58.1801 216.723 58.7458 216.405 59.2762C216.087 59.8066 215.786 60.1956 215.503 60.4431C214.867 61.0442 214.213 61.3978 213.541 61.5039C212.869 61.6099 212.25 61.5215 211.684 61.2387C211.154 60.9558 210.712 60.5138 210.358 59.9127C210.04 59.3116 209.916 58.5867 209.987 57.7381C210.022 57.4199 210.164 56.9956 210.411 56.4652C210.659 55.9702 210.942 55.4398 211.26 54.874C211.578 54.3436 211.896 53.8309 212.215 53.3359C212.533 52.8409 212.78 52.4342 212.957 52.116C213.664 50.9492 214.336 49.7823 214.973 48.6155C215.645 47.4486 216.316 46.2818 216.988 45.1149C214.655 43.1702 212.621 41.0132 210.889 38.6442C209.192 36.2398 207.883 33.6055 206.964 30.7414C206.787 30.2464 206.61 29.7514 206.434 29.2563C206.257 28.7613 206.204 28.2486 206.274 27.7182C206.345 27.1171 206.504 26.5867 206.752 26.1271C207.035 25.632 207.388 25.2431 207.813 24.9602C208.237 24.642 208.714 24.4652 209.245 24.4298C209.81 24.3945 210.376 24.5182 210.942 24.8011C211.401 25.0486 211.755 25.4022 212.003 25.8619C212.285 26.2862 212.515 26.7635 212.692 27.2939C212.869 27.7889 213.01 28.3016 213.116 28.832C213.258 29.3624 213.417 29.8398 213.594 30.2641C215.008 33.7646 217.147 36.7525 220.011 39.2276C221.037 37.1061 221.956 34.9845 222.769 32.863C223.583 30.7061 224.308 28.5138 224.944 26.2862L225.156 25.9679Z" fill="white"/>
</g>
<defs>
<clipPath id="clip0_204_13">
<rect width="159" height="50" fill="white" transform="translate(72 13)"/>
</clipPath>
</defs>
</svg>
